<svg xmlns="http://www.w3.org/2000/svg" enable-background="new 0 0 479.548 504" viewBox="0 0 479.548 504"><path d="M470.404,139.909c-7.273-12.404-18.941-21.233-32.854-24.86c-13.115-3.42-27.011-1.674-38.821,4.575
	c5.621-29.022-12.502-57.769-41.52-64.947c-17.315-4.283-35.282-0.102-48.8,10.935C305.198,33.7,280.481,6.873,247.337,2.376
	c-21.853-2.962-43.632,4.354-59.248,19.668c-0.302-0.391-0.594-0.788-0.908-1.173c-9.541-11.724-23.077-19.03-38.114-20.573
	c-31.043-3.183-58.886,19.479-62.072,50.52L86.16,58.95c-2.068,2.917-3.924,6.216-5.465,9.845
	c-1.435,3.379-2.501,6.856-3.183,10.297c-6.057-3.462-11.924-4.421-16.363-2.508c-11.622,5.016-8.919,23.297-6.876,32.017
	c-7.357,1.547-21.117,5.948-23.313,17.446c-1.917,10.035,5.625,16.269,12.648,19.387c-7.315,9.475-14.01,23.459-5.024,31.933
	c1.697,1.601,4.443,3.133,8.735,3.133c0.86,0,1.802-0.083,2.791-0.218C38.49,203.785,6.356,270.115,1.253,295.019
	c-6.196,30.241,12.001,130.249,23.801,155.813c11.918,25.824,57.294,51.571,59.22,52.654c0.62,0.349,1.293,0.515,1.957,0.515
	c1.397,0,2.755-0.734,3.489-2.039c1.084-1.926,0.401-4.364-1.523-5.448c-0.449-0.253-45.045-25.559-55.879-49.033
	C21.152,423.289,3.265,325.05,9.091,296.624c4.745-23.161,35.348-86.687,47.412-111.198c3.197,9.019,8.52,15.254,15.523,17.936
	c2.571,0.984,5.273,1.472,8.077,1.471c8.83,0,18.647-4.829,28.407-14.124c12.099-11.524,22.933-28.763,30.507-48.539
	c1.74-4.543,3.234-9.049,4.515-13.492c2.112,13.323,3.827,32.808,1.045,53.781c-5.051,38.074-50.464,110.46-50.922,111.188
	c-1.178,1.868-0.618,4.338,1.251,5.517c0.662,0.417,1.399,0.616,2.129,0.616c1.328,0,2.627-0.66,3.388-1.866
	c0.715-1.134,7.462-11.887,15.899-26.985c7.535,12.71,24.679,44.365,27.527,73.607c3.666,37.631-10.501,83.867-10.645,84.33
	c-0.654,2.109,0.525,4.351,2.635,5.006c0.395,0.122,0.794,0.181,1.188,0.181c1.705,0,3.285-1.1,3.818-2.814
	c0.605-1.95,14.791-48.217,10.967-87.478c-0.487-4.998-1.353-10.033-2.493-15.021c8.992-2.591,17.636-10.262,24.723-22.1
	c7.507-12.538,12.81-28.965,15.066-46.54c2.381,3.141,5.026,5.935,7.92,8.371c-0.31,13.469,0.54,28.683,2.52,42.136
	c2.953,20.067,9.536,44.536,24.13,47.145c0.846,0.151,1.689,0.224,2.534,0.224c13.738,0,27.273-19.32,36.432-36.092
	c9.667-17.705,18.332-39.89,21.96-55.877c2.746,2.743,5.941,5.051,9.573,6.902c0.077,9.285,0.778,19.163,2.091,28.084
	c3.531,23.992,10.313,37.05,20.156,38.809c0.744,0.133,1.492,0.199,2.248,0.199c9.244,0,19.359-9.948,30.104-29.624
	c7.444-13.632,14.163-30.549,17.361-43.356c4.295,5.642,9.908,10.359,16.799,14.09c0.323,7.336,1.06,14.87,2.207,21.801
	c2.592,15.658,8.244,34.782,20.462,36.966c0.762,0.136,1.521,0.201,2.278,0.201c11.409,0,22.356-14.858,29.722-27.791
	c8.46-14.855,15.919-33.902,18.137-46.317c0.649-3.635,0.928-7.231,0.886-10.735l13.264-50.866
	c7.067,121.294-8.368,217.599-47.01,293.823c-0.999,1.971-0.212,4.377,1.759,5.376c0.58,0.294,1.197,0.434,1.806,0.434
	c1.459,0,2.865-0.802,3.57-2.192c41.812-82.475,56.925-187.741,46.206-321.787C479.603,166.321,477.555,152.105,470.404,139.909z
	 M84.795,84.425c0.39-4.076,1.504-8.359,3.264-12.502c5.402-12.718,16.103-21.337,22.905-18.451
	c4.109,1.745,5.399,6.936,5.803,9.873c0.8,5.819-0.329,12.717-3.177,19.423c-3.866,9.103-10.31,16.166-16.414,18.323
	C93.968,94.319,89.434,88.614,84.795,84.425z M59.678,115.804c1.193-0.122,2.269-0.772,2.931-1.772s0.84-2.244,0.485-3.39
	c-2.24-7.236-5.041-24.009,1.225-26.712c2.324-1.003,7.352,0.129,13.346,4.925c9.113,7.292,17.156,20.684,15.895,35.084
	l-52.124-1.014C46.128,118.263,55.564,116.233,59.678,115.804z M44.073,171.546c-6.211-5.857,4.921-20.581,9.314-25.28
	c0.98-1.046,1.322-2.538,0.902-3.909c-0.421-1.371-1.547-2.413-2.945-2.73c-0.123-0.028-10.558-2.477-12.385-8.748l52.936,1.03
	c-6.043,18.486-26.327,35.407-39.179,39.584C48.665,172.809,45.432,172.828,44.073,171.546z M131.547,139.308
	c-7.157,18.689-17.298,34.886-28.554,45.607c-10.345,9.853-20.589,13.857-28.105,10.976c-6.207-2.377-10.638-9.38-12.64-19.838
	c15.596-8.174,34.912-27.093,38.722-47.305c1.356-7.193,0.791-14.012-0.98-20.208c8.221-3.044,16.243-11.532,20.964-22.646
	c3.404-8.015,4.732-16.409,3.739-23.638c-0.178-1.298-0.434-2.53-0.751-3.705c1.123,0.144,2.205,0.407,3.235,0.801
	C143.717,65.688,145.718,102.302,131.547,139.308z M130.038,51.882c-3.154-1.207-6.54-1.656-10.091-1.367
	c-1.613-1.942-3.576-3.438-5.856-4.407c-5.875-2.496-12.665-0.984-18.877,3.502c3.707-25.605,27.055-44.028,53.037-41.354
	c12.911,1.324,24.533,7.598,32.727,17.664c8.192,10.066,11.975,22.722,10.649,35.633L178.33,191.138
	c-5.798-9.171-13.281-14.575-21.749-15.484c-1.065-0.115-2.137-0.13-3.211-0.098c2.855-33.175-4.142-60.579-5.647-65.977
	C151.964,80.92,145.7,57.881,130.038,51.882z M181.662,254.663c-7.679-18.407-19.37-33.917-35.414-47.055
	c3.039-8.633,5.282-16.827,6.244-23.995c1.087-0.11,2.169-0.12,3.235-0.004c8.359,0.897,15.705,8.586,20.684,21.649
	C181.587,218.842,183.434,236.335,181.662,254.663z M138.522,226.957c1.682-3.822,3.283-7.64,4.766-11.411
	c17.618,15.064,29.338,33.38,35.739,55.804c-1.184,5.324-2.653,10.402-4.364,15.139
	C166.319,264.172,154.186,244.201,138.522,226.957z M167.129,289.187c-13.278-8.613-25.775-22.618-37.947-42.468
	c1.941-3.869,3.863-7.82,5.724-11.803C148.748,250.779,159.558,268.973,167.129,289.187z M147.329,321.014
	c-7.679-26.934-22.08-51.06-26.555-58.183c1.37-2.532,2.762-5.147,4.161-7.823c13.833,21.567,28.29,36.207,43.97,44.504
	C162.833,310.832,155.248,318.69,147.329,321.014z M190.215,246.676c0.562-15.103-1.252-29.431-5.294-41.385L199.586,62.37
	c1.211-11.799-1.256-23.406-6.978-33.526c13.923-14.329,33.766-21.242,53.653-18.541c34.413,4.668,58.612,36.463,53.944,70.876
	l-18.931,139.559c-0.264-0.592-0.528-1.185-0.811-1.764c-6.186-12.683-16.089-20.828-27.885-22.936
	c-11.804-2.108-23.909,2.104-34.104,11.858c-9.855,9.431-16.782,23.007-19.502,38.227c-0.62,3.466-1.094,7.416-1.426,11.696
	C194.738,254.614,192.292,250.881,190.215,246.676z M236.058,276.799l-13.083-20.583l12.845-13.495l8.49,15.39L236.058,276.799z
	 M251.653,254.859l-11.466-20.783c-0.615-1.115-1.726-1.871-2.99-2.034c-1.26-0.165-2.531,0.287-3.409,1.209l-28.672,30.124
	c0.315-5.752,0.888-11.124,1.731-15.843c2.424-13.564,8.518-25.588,17.158-33.855c6.95-6.65,14.845-10.163,22.64-10.163
	c1.515,0,3.025,0.133,4.525,0.4c9.216,1.647,17.065,8.241,22.102,18.567c5.241,10.748,6.793,24.138,4.369,37.701
	c-0.368,2.058-0.828,4.216-1.369,6.451L251.653,254.859z M226.322,349.983c-0.42,0-0.832-0.035-1.236-0.107
	c-12.727-2.275-20.141-41.383-20.26-74.59l12.466-13.097l14.88,23.411l-7.16,16.214c-0.597,1.352-0.4,2.921,0.511,4.083
	l21.095,26.919C239.396,343.128,232.153,349.983,226.322,349.983z M251.241,325.747l-17.942-22.896l17.465-39.549l23.368,11.175
	C269.083,291.274,260.436,310.771,251.241,325.747z M286.362,255.475c0.466-4.66,0.512-9.276,0.141-13.768l21.629-159.451
	c0.271-1.995,0.434-3.978,0.535-5.953c11.896-12.753,29.631-18.063,46.619-13.86c25.68,6.352,41.403,32.411,35.053,58.09
	l-26.527,107.247c-4.834-10.788-13.215-18.531-23.723-20.409c-19.727-3.534-39.598,14.942-44.285,41.168
	c-0.767,4.293-1.258,9.501-1.486,15.177C291.094,261.516,288.461,258.786,286.362,255.475z M359.5,259.921
	c-2.208,12.356-9.506,31.527-17.747,46.62c-10.881,19.925-19.49,26.176-23.922,25.384s-10.345-9.641-13.649-32.099
	c-2.504-17.012-2.71-37.523-0.502-49.88c3.609-20.2,17.265-35.016,31.448-35.016c1.183,0,2.37,0.103,3.555,0.314
	C354.072,217.996,363.411,238.037,359.5,259.921z M392.045,254.587c1.982-11.088,7.419-20.403,14.424-26.194
	c12.939,33.05,12.187,67.416-2.263,102.286C393.246,322.195,387.989,277.282,392.045,254.587z M447.865,264.562
	C447.865,264.562,447.865,264.562,447.865,264.562c-2.076,11.617-9.154,29.614-17.214,43.766
	c-6.956,12.213-13.021,18.92-17.631,21.875c14.08-36.13,14.203-71.776,0.354-106.12c3.038-1.34,6.224-2.069,9.45-2.069
	c1.257,0,2.521,0.109,3.783,0.335C441.997,225.098,451.533,244.035,447.865,264.562z M428.014,214.472
	c-19.726-3.528-39.4,13.838-43.845,38.707c-0.908,5.083-1.371,11.523-1.417,18.503c-6.62-4.377-11.421-9.887-14.577-16.698
	c0.292-3.767,0.241-7.457-0.128-11.014l27.986-113.146c11.181-8.58,25.84-11.593,39.497-8.036
	c11.846,3.089,21.779,10.605,27.972,21.166s7.901,22.9,4.813,34.747l-15.188,58.248C448.467,225.181,439.476,216.52,428.014,214.472
	z M327.844,271.955c-7.513-1.288-14.858,4.879-16.385,13.753c-0.711,4.135-0.074,8.283,1.792,11.684
	c2.001,3.646,5.303,6.107,9.058,6.753c0.66,0.113,1.326,0.169,1.992,0.169c3.12,0,6.242-1.228,8.801-3.508
	c2.895-2.581,4.881-6.279,5.592-10.414s0.074-8.283-1.792-11.684C334.901,275.063,331.599,272.601,327.844,271.955z
	 M330.809,289.036c-0.399,2.323-1.504,4.437-3.031,5.798c-0.748,0.668-2.274,1.739-4.113,1.426c-1.833-0.315-2.918-1.839-3.4-2.719
	c-0.984-1.793-1.319-4.153-0.92-6.478c0.711-4.133,3.583-7.28,6.478-7.28c0.223,0,0.445,0.019,0.667,0.057
	c1.833,0.315,2.918,1.839,3.4,2.719C330.874,284.352,331.209,286.712,330.809,289.036z M334.735,231.896
	c-7.514-1.292-14.859,4.879-16.386,13.753s3.341,17.145,10.85,18.437c0.669,0.115,1.336,0.171,1.998,0.171
	c6.772,0,12.996-5.84,14.387-13.924c0.711-4.134,0.074-8.283-1.791-11.683C341.791,235.003,338.49,232.542,334.735,231.896z
	 M337.699,248.977c-0.765,4.451-4.035,7.76-7.145,7.224c-3.107-0.534-5.086-4.746-4.32-9.196c0.711-4.133,3.583-7.28,6.479-7.28
	c0.223,0,0.445,0.019,0.667,0.057c1.832,0.315,2.917,1.839,3.399,2.719C337.763,244.292,338.098,246.654,337.699,248.977z"/></svg>